<?xml version="1.0" encoding="UTF-8"?>
<!-- Generated by Pixelmator Pro 3.6.13 -->
<svg width="5460" height="3072" viewBox="0 0 5460 3072" xmlns="http://www.w3.org/2000/svg">
    <path id="Path" fill="#0c55f7" stroke="none" d="M 122 318 C 122 318 264.732971 188.17749 343 102 C 438.677002 -3.346924 388.416016 -1.39502 457 0 C 839.019165 7.770508 2058.213867 0.746094 2389 0 C 4064.189453 -3.77832 5455.334473 0.375 5455.334473 0.375 C 5457.760742 4.251221 5459.146973 7.72998 5459.52002 12.297852 C 5463.626465 65.388428 5460 121.273682 5460 174.749268 L 5460.026855 507.475098 L 5460.080078 1809.493286 L 5460.053711 2128.03418 C 5460.053711 2153.099854 5464.266113 2217.385498 5459.200195 2239.105713 C 5458.480469 2242.096924 5457.494141 2244.770996 5456.347656 2247.607666 C 5462.505859 2261.700195 5463.092285 2337.617676 5457.760742 2351.009033 C 5457.01416 2352.851074 5456.960938 2352.901855 5456.161133 2354.450928 C 5462.666016 2368.268799 5462.933105 2509.98877 5457.787598 2522.72168 C 5457.44043 2523.556152 5457.040527 2524.366699 5456.694336 2525.19043 C 5463.199219 2541.135986 5495.131836 2614.371582 5489 2629 C 5489.479004 2631.807861 5482.339844 2592.474609 5476 2603 C 5439.802246 2663.095947 5110.853027 2974.640381 5110 2976 L 5020 3072 L 0 3071.625 L 0 822.456787 L 0 712.86499 L 0 538.904785 L 0 438 L 122 318 Z"/>
    <path id="path1" fill="#fefefd" stroke="none" d="M 2322.43042 2330.251465 C 2342.601318 2329.963379 2375.572021 2325.822998 2393.762207 2333.549316 C 2397.979736 2335.34082 2397.563965 2336.439209 2399.080811 2340.696777 C 2388.36084 2355.980957 2361.884521 2344.706543 2344.635498 2349.395996 C 2341.726807 2354.554688 2342.134766 2357.724609 2342.780029 2363.507324 C 2353.998535 2378.349121 2370.991699 2370.289551 2387.246338 2373.704834 C 2389.661621 2374.211426 2389.843018 2375.805664 2391.109619 2377.794434 L 2388.195313 2386.101807 C 2379.546875 2391.652344 2354.787598 2388.500977 2343.726318 2388.522461 C 2342.918457 2394.880859 2342.966797 2400.51416 2343.598389 2406.888672 C 2359.447754 2422.287598 2381.213135 2407.248535 2397.939941 2417.088867 C 2398.326172 2422.628906 2398.833008 2423.988525 2396.084229 2428.992676 C 2372.42334 2432.954346 2346.549805 2431.050781 2322.544678 2431.029541 L 2322.43042 2330.251465 Z"/>
    <path id="path2" fill="#fefefd" stroke="none" d="M 2194.069824 2281.131836 C 2202.545898 2279.497803 2211.774902 2281.379639 2220.239014 2282.874756 C 2241.731689 2286.61377 2271.029053 2299.14209 2283.522705 2318.192871 L 2275.555664 2330.385254 C 2272.672852 2332.783691 2268.315918 2342.674805 2265.428955 2343.355225 C 2255.262207 2345.765381 2210.116455 2322.888916 2192.150391 2321.763916 C 2176.784424 2320.804443 2161.273682 2323.893311 2149.792725 2335.602783 C 2135.156738 2350.53125 2129.493652 2379.945313 2130.611328 2400.566162 C 2131.61377 2419.05127 2142.640381 2438.051025 2156.179443 2449.378418 C 2171.717529 2462.382324 2193.584717 2466.634766 2213.10498 2463.230225 C 2226.714111 2460.855469 2239.519287 2455.589844 2247.305176 2443.090332 C 2249.788818 2439.101318 2247.131836 2434.189941 2246.142334 2429.786377 C 2230.568604 2416.604492 2217.062012 2422.231689 2200.667969 2414.358398 C 2192.433594 2410.402344 2195.101074 2400.648193 2191.865967 2392.092285 C 2225.337646 2391.840332 2262.263428 2391.984863 2292.599854 2393.255127 C 2290.392334 2412.658936 2289.7146 2439.489746 2281.614746 2457.044922 C 2272.023193 2477.834473 2253.045654 2496.604492 2231.765625 2502.772217 C 2203.717773 2510.904053 2170.513672 2500.954102 2146.525391 2485.644531 C 2118.92627 2468.380371 2099.56958 2439.736572 2093.10376 2406.59082 C 2088.312744 2381.630615 2091.224121 2353.535645 2105.571045 2332.13623 C 2126.243408 2301.319092 2160.425537 2287.962646 2194.069824 2281.131836 Z"/>
    <path id="path3" fill="#fefefd" stroke="none" d="M 1942.332031 1800.176636 L 2102.374023 1800 C 2102.60083 1897.390625 2117.682861 2073.970215 2086.088867 2160.337891 C 2072.614502 2197.169189 2048.766357 2230.489746 2011.941528 2246.541992 C 1968.44873 2265.505371 1911.147827 2256.140625 1868.770508 2238.966309 C 1848.659668 2225.227051 1828.693726 2211.948242 1821.96936 2187.986328 C 1827.231567 2166.999512 1848.269165 2154.155518 1864.358887 2141.216309 C 1887.646484 2164.358887 1917.689575 2186.782715 1951.256226 2191.106201 C 1966.287109 2193.041016 1980.328857 2188.250977 1991.345459 2177.902832 C 2047.317139 2125.328369 2026.348755 1947.532104 2025.983398 1872.099121 C 2002.923096 1872.603394 1969.728271 1877.437256 1949.686646 1865.9104 C 1937.302246 1846.795044 1941.613525 1822.15918 1942.332031 1800.176636 Z"/>
    <path id="path4" fill="#000000" stroke="none" d="M 3061.972168 2689.878174 C 3093.804443 2729.761963 3120.038086 2772.311279 3154.749268 2810.328857 C 3172.025391 2829.257324 3231.557373 2873.833496 3239.368896 2890.069336 C 3216.014648 2889.322754 3192.580322 2889.536133 3169.226074 2889.296143 L 2989.136475 2889.322754 C 3015.476807 2823.525391 3038.324707 2756.661865 3061.972168 2689.878174 Z"/>
    <path id="path5" fill="#fefefd" stroke="none" d="M 2231.601807 2061.661133 C 2255.875732 2059.957275 2277.785156 2060.882568 2299.656982 2072.738281 C 2322.886475 2085.370605 2340.103271 2106.762939 2347.477295 2132.155762 C 2354.561523 2157.0625 2351.432373 2183.765381 2338.780762 2206.358887 C 2323.491211 2233.400391 2298.985352 2247.370117 2269.741699 2255.13916 C 2243.654541 2257.080078 2220.391113 2254.944336 2197.319336 2241.502441 C 2174.991455 2228.492188 2158.019775 2207.577393 2151.562744 2182.404785 C 2145.231934 2156.983643 2149.133057 2130.093262 2162.426514 2107.519043 C 2178.41748 2080.778809 2202.443359 2069.088379 2231.601807 2061.661133 Z"/>
    <path id="path6" fill="#0c55f7" stroke="none" d="M 2238.775879 2090.971191 C 2253.209717 2090.147461 2267.299561 2090.755127 2280.536377 2097.081543 C 2296.796387 2104.855713 2309.179932 2118.324463 2315.109375 2135.392334 C 2321.113281 2152.676025 2320.329346 2172.655273 2312.099365 2189.088623 C 2301.843262 2209.576904 2285.193848 2219.755859 2264.015137 2226.692627 C 2245.977051 2227.612549 2230.665771 2226.351563 2214.872559 2216.684326 C 2198.529053 2206.900146 2186.874268 2190.882813 2182.592285 2172.322021 C 2178.561279 2154.870117 2181.216553 2135.512207 2190.979492 2120.355957 C 2202.384766 2102.65625 2218.88208 2095.268799 2238.775879 2090.971191 Z"/>
    <path id="path7" fill="#000000" stroke="none" d="M 341.687225 97.244385 L 446.600281 97.847168 C 366.334534 181.087402 282.256409 260.51709 200.401733 342.168945 C 134.622864 407.784912 70.299904 478.237061 0 538.904785 L 0 431.533691 C 57.752827 383.038818 109.976349 328.820068 163.306534 275.593262 C 222.798386 216.215088 282.866913 157.280518 341.687225 97.244385 Z"/>
    <path id="path8" fill="#000000" stroke="none" d="M 5456.694336 2525.19043 C 5463.199219 2541.135986 5462.852539 2620.055176 5456.720703 2634.683594 C 5453.574707 2640.258301 5114.430664 2973.302246 5110.271973 2976.04834 L 5005.630859 2975.461914 C 5020.934082 2966.957275 5443.76416 2544.00708 5456.694336 2525.19043 Z"/>
    <path id="path9" fill="#000000" stroke="none" d="M 4793.04248 2904.972412 C 4812.744629 2894.20166 4974.251953 2725.629395 5000.485352 2699.502441 L 5333.204102 2368.25293 C 5360.05127 2341.779297 5440.111328 2272.212158 5456.347168 2247.607666 C 5462.505859 2261.700195 5463.092285 2337.617676 5457.760742 2351.009033 C 5457.013672 2352.851074 5456.960938 2352.901855 5456.161133 2354.450928 C 5447.09668 2366.922363 5430.300781 2378.541016 5418.863281 2389.508789 C 5385.123047 2421.972656 5351.566406 2454.626465 5318.194824 2487.468994 L 4946.071777 2857.970459 L 4872.570313 2930.432861 C 4857.800293 2945.255859 4842.550781 2964.504395 4825.167969 2976.021729 L 302.302185 2975.568359 L 374.281921 2903.826172 L 4793.04248 2904.972412 Z"/>
    <path id="path10" fill="#000000" stroke="none" d="M 626.649658 97.337891 L 3563.023438 97.035645 L 4640.493652 97.135498 C 4810.105469 97.029785 4979.930664 98.689697 5149.515625 96.517334 C 5146.370117 111.150146 5096.115723 158.50708 5081.958984 167.911133 C 5080.786133 168.701172 5078.893066 169.618652 5077.693359 170.226563 L 659.868225 169.127441 L 217.572464 608.285156 C 145.361298 679.947754 74.24987 752.900635 0 822.456787 L 0 712.86499 C 73.33036 656.348145 137.653595 584.293701 203.197311 518.984375 L 478.163208 244.798828 C 527.447205 195.633789 575.942017 144.992188 626.649658 97.337891 Z"/>
    <path id="path11" fill="#000000" stroke="none" d="M 1677.529053 956.083008 C 1652.116577 950.495117 1628.266479 944.55249 1605.072144 932.179443 C 1564.063354 910.307617 1531.823242 872.634033 1518.543945 827.903564 C 1502.054688 772.351807 1520.56189 711.262695 1547.462036 661.954834 C 1578.7771 604.560791 1627.474731 550.320801 1680.080444 511.660645 C 1722.733887 480.313965 1773.24707 457.999268 1820.798096 435.130127 C 1966.016846 364.539795 2116.49707 305.331299 2270.882813 258.038818 C 2562.185059 171.92749 2884.015625 156.896973 3145.844971 336.474121 C 3234.970215 397.605957 3311.511475 477.477051 3378.881592 561.624512 C 3461.421387 664.732666 3537.909424 788.04126 3657.1604 852.388428 C 3739.033447 896.56958 3886.677734 907.188232 3974.922852 880.949219 C 3969.670654 893.631592 3950.022217 905.599121 3938.638184 913.237305 C 3816.987793 994.849609 3678.515381 1012.589111 3537.00293 984.697266 C 3519.194092 975.630371 3498.585693 970.602051 3480.083496 962.489502 C 3457.822266 952.731934 3435.827637 938.188721 3412.980225 930.659668 C 3422.124512 938.951172 3438.787109 954.299316 3438.413574 967.925293 C 3438.387207 968.52002 3438.227051 969.098389 3438.120605 969.685059 C 3471.232666 973.939941 3504.984131 983.740234 3537.216553 992.308838 C 3686.219971 1033.053467 3852.046143 1108.080566 3932.239746 1248.478271 C 3948.289063 1276.575195 3974.06958 1324.606445 3967.324707 1357.459473 C 3957.993652 1325.741943 3856.685059 1260.253906 3826.132324 1243.524658 C 3734.714844 1193.475586 3606.98584 1161.478027 3502.478027 1151.365967 C 3517.967773 1166.050293 3524.979248 1194.60083 3532.364258 1214.494385 C 3572.434326 1322.318848 3613.490967 1435.589722 3744.365479 1450.543579 C 3710.560547 1486.705444 3428.602783 1579.336182 3370.963623 1585.947754 C 3428.229492 1608.251709 3491.84082 1662.74231 3539.482178 1703.060547 C 3812.668945 1934.201416 4011.047363 2238.263184 4154.105957 2563.767822 C 4173.780762 2608.500732 4276.875488 2861.409668 4268.130859 2888.069824 L 4050.317627 2888.069824 C 4054.023193 2869.781006 4031.069092 2821.686035 4024.270508 2803.397217 C 3939.891113 2577.332275 3829.145264 2354.39209 3695.817627 2153.193359 C 3679.368164 2128.356689 3622.182129 2037.432251 3602.0271 2024.459229 L 3599.041016 2025.555054 C 3599.520996 2029.860718 3600.560791 2032.025513 3602.960205 2035.640747 C 3618.503174 2059.203125 3636.178711 2081.4375 3652.308105 2104.624023 C 3679.978027 2144.830078 3706.541504 2185.786621 3731.968506 2227.447266 C 3840.296387 2404.527588 3932.331299 2591.072998 4006.941406 2784.788574 C 4014.193115 2803.903564 4043.49292 2870.287354 4038.533691 2887.856445 L 3517.274414 2887.909668 C 3430.815674 2888.016602 3342.010742 2884.230713 3255.818115 2889.802734 C 3248.886475 2879.271973 3186.582031 2828.724365 3169.279541 2811.52832 C 3128.889404 2771.351563 3096.550537 2725.602783 3065.03833 2678.334229 C 3072.183105 2652.900635 3088.765625 2613.995361 3075.168945 2589.734619 C 3080.154541 2629.549072 3001.1604 2845.09375 2979.086182 2889.82959 C 2959.250732 2889.962646 2912.755615 2894.574707 2895.959473 2887.696533 C 2886.735107 2893.721924 2872.95166 2893.561768 2862.314453 2890.442627 C 2861.701172 2890.255859 2861.141357 2889.962646 2860.554688 2889.7229 C 2703.314697 2888.334473 2546.065186 2888.307861 2388.824707 2889.642822 L 2379.800293 2891.109131 C 2364.158691 2888.17627 2344.294189 2890.149414 2328.20752 2890.069336 C 2388.451416 2747.490967 2432.406006 2586.220947 2439.039063 2431.362793 C 2433.141846 2431.73877 2427.929932 2431.199951 2422.109863 2430.237793 C 2414.050537 2417.571289 2419.859863 2343.949219 2420.23584 2325.468506 L 2444.949707 2345.738281 C 2446.021484 2287.061768 2446.031982 2228.230957 2450.604248 2169.704102 C 2465.712646 2169.590332 2480.818848 2169.271973 2495.918457 2168.749512 C 2475.222412 2167.352539 2454.44873 2168.65625 2433.744385 2169.431885 L 2433.698975 2254.723145 L 2401.78418 2255.253906 C 2401.65625 2229.241211 2396.454834 2084.154053 2404.407471 2070.992188 L 2402.711914 2067.98999 C 2404.4104 2066.881104 2406.140381 2065.755859 2407.947998 2064.828125 C 2414.725098 2061.346191 2419.998535 2060.869141 2426.983398 2062.871338 C 2440.939941 2076.54541 2430.129395 2118.561523 2436.117188 2138.796875 C 2441.881104 2144.408691 2445.413574 2143.067871 2452.982422 2143.200928 C 2449.404541 2097.950928 2467.210938 2017.772949 2486.422119 1975.983154 C 2444.39502 1963.290283 2398.382324 1946.854248 2360.711426 1924.099854 C 2346.07251 1915.25415 2332.193115 1902.873169 2328.407471 1885.453369 C 2317.620605 1835.801392 2395.239014 1722.871704 2421.894043 1679.722168 C 2388.915283 1639.947998 2348.351807 1609.302002 2307.079346 1578.794922 C 2248.666748 1620.981812 2178.766602 1651.7771 2109.746094 1671.769531 C 2070.665039 1683.089478 2028.699341 1692.212524 1991.108521 1670.793701 C 1951.79541 1648.394043 1956.951416 1609.502075 1934.612915 1576.638062 C 1903.247314 1530.497314 1888.040283 1558.183838 1869.258179 1487.513184 C 1856.805176 1483.639404 1844.120361 1479.938965 1831.98999 1475.148193 C 1817.886841 1469.576294 1803.098511 1462.495239 1797.262451 1447.408203 C 1791.58374 1432.726563 1799.096558 1421.542603 1805.321777 1408.623047 C 1785.438721 1400.158447 1764.02002 1392.315186 1746.258911 1379.81665 C 1725.903809 1365.489746 1708.03894 1342.708496 1703.986694 1317.543945 C 1697.969238 1280.19043 1740.713623 1256.14563 1764.614502 1234.481689 C 1776.096924 1224.073486 1785.790649 1212.649658 1794.983154 1200.207275 C 1779.226929 1167.450073 1759.572876 1135.935059 1742.630493 1103.678833 C 1717.449829 1055.735962 1696.335083 1006.833252 1677.529053 956.083008 Z"/>
    <path id="path12" fill="#fefefd" stroke="none" d="M 2959.757324 2329.350098 C 2966.182129 2329.883301 2971.487549 2329.768799 2976.57959 2334.202393 C 2980.471924 2365.912109 2977.779297 2399.967773 2977.566162 2431.951904 C 2973.033936 2431.359863 2964.982666 2431.202637 2961.570068 2427.966064 C 2955.144775 2421.842285 2959.597168 2342.760254 2959.757324 2329.350098 Z"/>
    <path id="path13" fill="#fefefd" stroke="none" d="M 2849.810791 2330.77124 C 2866.366699 2330.389893 2883.162354 2329.718262 2899.71875 2330.174072 C 2910.355957 2330.467285 2930.404541 2330.917969 2938.109375 2339.131836 L 2936.083252 2342.021729 C 2925.3125 2347.732422 2913.635254 2346.735352 2901.798096 2346.631348 L 2901.45166 2398.290771 C 2901.984863 2407.715332 2903.877441 2418.827148 2899.878418 2427.616943 C 2894.173096 2430.344238 2894.386719 2429.789551 2888.734619 2427.808838 C 2877.084229 2413.820313 2883.695801 2365.605469 2883.749268 2346.823242 C 2875.517334 2346.892334 2867.285156 2346.73584 2859.062012 2346.354004 C 2851.970215 2341.528564 2852.130371 2338.726563 2849.810791 2330.77124 Z"/>
    <path id="path14" fill="#fefefd" stroke="none" d="M 2543.762695 2331.210938 C 2566.429199 2331.037842 2595.598145 2327.574707 2617.312988 2333.661133 L 2618.288574 2341.379395 C 2609.634766 2356.820801 2579.580566 2341.437988 2563.584473 2352.363281 C 2561.121338 2358.732422 2561.52124 2362.45166 2563.099365 2369.023438 C 2576.954834 2374.880371 2595.907471 2370.42041 2611.095703 2373.334229 C 2612.652588 2378.135742 2611.586182 2378.930176 2609.733398 2383.473145 C 2598.95459 2391.263184 2575.57666 2387.893311 2562.307617 2387.554688 C 2561.891602 2395.856689 2560.926514 2404.140137 2563.834961 2412.105957 C 2579.844482 2419.11499 2600.594238 2408.397705 2615.812012 2414.731934 C 2620.2854 2416.595703 2620.621338 2418.213867 2622.180908 2422.5354 C 2621.02124 2424.873535 2621.293213 2424.865723 2619.472168 2426.601074 C 2608.669434 2436.899902 2559.678955 2431.322754 2543.930664 2430.952148 L 2543.762695 2331.210938 Z"/>
    <path id="path15" fill="#fefefd" stroke="none" d="M 2790.038574 2329.510254 C 2793.05127 2329.769043 2797.849854 2329.864746 2800.356201 2331.690918 C 2809.873779 2338.641357 2841.012939 2412.343262 2845.758545 2426.590332 L 2843.198975 2431.418701 L 2837.253906 2431.154785 C 2829.575684 2426.377441 2825.656738 2419.128418 2819.897949 2412.452637 C 2815.099365 2406.870117 2812.619873 2408.040283 2805.314941 2407.461914 C 2782.342285 2406.814697 2784.580811 2407.494141 2779 2408 C 2775.555664 2408.312256 2771.986572 2414.103516 2769 2417 C 2763.868408 2421.976807 2757.232666 2429.137695 2752.314453 2434.090088 C 2747.4021 2432.063965 2746.78833 2431.401855 2742.183594 2428.435547 C 2755.59375 2394.726318 2773.882568 2362.041016 2790.038574 2329.510254 Z"/>
    <path id="path16" fill="#000000" stroke="none" d="M 2794.811035 2353.930908 C 2800.702637 2365.344238 2807.68042 2379.280273 2810 2392 L 2785 2392 C 2777.500732 2392.410645 2780.407471 2391.298584 2781 2390 C 2785.654297 2376.802979 2790.251953 2364.035156 2794.811035 2353.930908 Z"/>
    <path id="path17" fill="#fefefd" stroke="none" d="M 3137.927246 2328.937012 C 3140.273193 2328.923828 3142.272705 2329.347656 3144.511963 2330.083496 C 3153.869873 2333.133301 3202.284668 2384.92334 3207.510254 2395.462158 C 3212.868896 2377.202637 3207.376953 2359.308105 3211.428955 2341.861816 C 3213.135254 2334.546387 3216.174805 2331.173828 3222.279785 2327.374756 C 3224.332764 2328.79834 3225.105957 2329.024902 3226.332275 2331.368408 C 3232.970703 2344.016113 3230.251221 2417.397949 3225.878906 2430.533447 L 3224.626221 2432.501221 C 3196.846191 2417.552734 3181.783203 2380.958984 3151.710693 2366.410645 C 3152.350342 2367.434326 3152.990234 2368.460693 3153.523438 2369.529785 C 3159.681885 2381.513672 3159.175049 2413.356445 3155.362793 2426.45459 C 3150.884033 2431.293457 3151.017334 2431.191895 3144.432129 2431.514648 C 3134.648193 2424.196533 3142.05957 2348.580322 3138.380615 2330.941895 C 3138.220459 2330.27002 3138.060547 2329.606201 3137.927246 2328.937012 Z"/>
    <path id="path18" fill="#fefefd" stroke="none" d="M 2645.020752 2330.589844 L 2647.827881 2330.55542 C 2672.894043 2330.256836 2705.072754 2328.32373 2723.921387 2348.585449 C 2728.20752 2353.239502 2730.192139 2359.563721 2729.333496 2365.832031 C 2727.653809 2378.575684 2716.429932 2389.013184 2706.672363 2396.072754 C 2712.537598 2405.131836 2722.85498 2414.881348 2725.04126 2425.446777 C 2725.494629 2427.619629 2723.708252 2428.995361 2722.508545 2430.744141 L 2710.9646 2431.866455 C 2704.859375 2422.567383 2698.727539 2412.679199 2690.836426 2404.750488 C 2685.397461 2399.26123 2679.825684 2395.547363 2671.827637 2395.558105 C 2656.841797 2405.198242 2667.108643 2415.726563 2661.941895 2430.099121 C 2655.119873 2432.509033 2654.791748 2432.317139 2647.926758 2429.909668 C 2640.427246 2416.366455 2644.94873 2350.003906 2645.020752 2330.589844 Z"/>
    <path id="path19" fill="#000000" stroke="none" d="M 2663.35498 2346.481934 C 2672.387451 2346.27417 2682.198242 2345.623535 2691.15625 2347.161865 C 2699.954102 2348.678711 2707.361328 2350.363037 2708 2365 C 2709.225342 2370.335938 2704.730225 2382.323242 2690 2383 C 2683.95752 2383.277588 2676.812988 2383.641113 2663.349609 2383.641113 L 2663.35498 2346.481934 Z"/>
    <path id="path20" fill="#fefefd" stroke="none" d="M 2507.038574 870.314453 C 2489.416016 871.474365 2472.537354 873.076416 2455.339111 877.395508 C 2402.69043 890.616211 2356.867188 921.472656 2329.028564 968.770508 C 2300.491455 1017.254639 2290.640625 1073.171631 2305.215576 1127.974365 C 2324.520508 1200.559204 2374.078857 1255.268555 2444.000488 1282.755249 C 2459.85791 1288.988281 2479.445068 1295.693237 2496.478516 1296.650391 C 2518.486328 1297.887451 2579.524658 1285.146606 2592.972168 1292.973999 C 2578.282227 1299.535034 2548.6604 1299.996216 2532.133545 1301.164063 C 2476.166016 1305.117676 2415.20459 1284.439941 2373.00708 1247.350464 C 2325.52124 1205.761963 2296.793701 1146.795898 2293.312012 1083.769043 C 2290.443115 1030.507446 2313.680176 972.148193 2348.978271 932.765869 C 2404.991211 870.271973 2483.380127 865.473145 2561.563721 861.231445 C 2537.734863 866.270264 2517.734375 873.207031 2497.304688 886.513184 C 2447.335693 919.052002 2410.955078 965.286133 2398.587402 1024.204956 C 2382.783447 1074.046143 2386.766357 1119.024536 2410.656494 1165.431885 C 2421.757813 1186.997314 2436.749023 1209.450439 2456.821533 1223.449707 L 2451.67334 1222.604492 C 2433.301758 1209.636963 2418.401367 1192.438477 2406.212402 1173.632446 C 2378.600342 1131.02417 2369.887939 1083.635742 2380.994629 1033.877197 C 2388.736572 999.205811 2429.182861 919.209229 2455.560303 897.793213 C 2468.948975 886.921143 2491.546143 880.109375 2507.038574 870.314453 Z"/>
    <path id="path21" fill="#fefefd" stroke="none" d="M 3041.630615 2330.907227 C 3055.947021 2329.459473 3071.089844 2328.155762 3084.340088 2334.914307 C 3098.203369 2341.989746 3108.894287 2353.653809 3113.266357 2368.732666 C 3116.7854 2380.905762 3116.198975 2394.28125 3109.74707 2405.38501 C 3101.589111 2419.400391 3089.831787 2426.350586 3074.502197 2430.261719 C 3066.904297 2433.812744 3051.868164 2432.354492 3043.763184 2430.256348 C 3030.593262 2426.841064 3020.675781 2417.987305 3014.143799 2406.222168 C 3006.898926 2393.131104 3005.374756 2377.630859 3009.931641 2363.379395 C 3015.183594 2346.871338 3026.75415 2338.37207 3041.630615 2330.907227 Z"/>
    <path id="path22" fill="#000000" stroke="none" d="M 3052.987793 2343.714844 C 3058.799561 2344.061279 3064.478271 2344.567871 3070.050537 2346.343506 C 3080.714355 2349.73999 3089.645508 2356.458496 3094.497559 2366.834473 C 3098.230225 2374.880371 3098.763184 2383.595703 3095.644043 2391.91626 C 3090.63208 2405.243652 3080.92749 2410.55957 3068.637207 2416.107666 C 3062.585449 2416.187744 3055.200684 2416.704834 3049.415527 2414.924072 C 3039.844238 2411.986084 3031.233154 2404.763916 3026.727783 2395.838135 C 3022.302002 2387.072266 3022.141846 2376.957275 3025.7146 2367.850342 C 3030.993164 2354.490723 3040.724365 2349.337402 3052.987793 2343.714844 Z"/>
    <path id="path23" fill="#fefefd" stroke="none" d="M 2696.674805 2067.283691 C 2699.847412 2068.824463 2702.193359 2070.640137 2704.006348 2073.719238 C 2717.043213 2095.98584 2726.640869 2122.086182 2737.864502 2145.432617 C 2755.354004 2181.730225 2775.029053 2216.991211 2790.86499 2254.056641 L 2757.619873 2254.992432 L 2739.171143 2214.970215 L 2700.007324 2214.826172 L 2660.408936 2214.383789 L 2640.325928 2253.411377 L 2608.389893 2253.845947 C 2636.422852 2191.378662 2666.095703 2128.548584 2696.674805 2067.283691 Z"/>
    <path id="path24" fill="#000000" stroke="none" d="M 2698.354492 2126.799805 C 2707.205566 2145.099365 2722.028564 2164.302734 2723.574951 2184.833496 C 2718.322754 2190.160156 2713.124023 2188.478027 2705.872559 2188.568604 L 2670.841064 2188.568604 L 2698.354492 2126.799805 Z"/>
    <path id="path25" fill="#fefefd" stroke="none" d="M 3455 1885 C 3461.85083 1870.016846 3461.234619 1874.275879 3466.786621 1883.792358 C 3484.076416 1913.427979 3616.000977 2211.288086 3638.882324 2267.561279 L 3641.938232 2273.403809 C 3646.538574 2283.240479 3646.327393 2287.829834 3648.628418 2297.7146 C 3637.550293 2304.727539 3620.419678 2302.674805 3607.647217 2302.367676 C 3553.833252 2301.085693 3569.753174 2247.97876 3538.639648 2217.735352 C 3537.791992 2216.928467 3536.943848 2216.188232 3536.035889 2215.417725 L 3449.353271 2215.712646 L 3365 2215.486816 C 3336.233154 2277.975342 3339.629395 2278.145508 3329.497803 2303 L 3254.255615 2301.314453 C 3279.618408 2272.040039 3442.288086 1928.64978 3455 1885 Z"/>
    <path id="path26" fill="#000000" stroke="none" d="M 3452 1989 L 3464 2020 C 3483.732666 2073.590576 3505.710693 2131.378906 3524 2189 C 3503.484131 2189.184082 3474.513184 2188.189697 3451 2188.127686 C 3432.645996 2188.919189 3405.151123 2190.084961 3379 2189 C 3394.842285 2143.991699 3433.139648 2037.313232 3452 1989 Z"/>
    <path id="path27" fill="#fefefd" stroke="none" d="M 2835.174072 2064.828125 C 2852.770264 2071.023926 2950.426514 2178.936279 2970.021484 2199.392578 L 2970.154541 2069.581787 C 2979.165771 2069.520508 2988.230225 2069.877686 2997.241455 2070.088135 C 3003.133057 2078.056885 2999.560791 2238.148438 2999.480713 2260.345703 L 2996.468018 2262.270752 L 2986.710693 2252.499756 L 2985 2251 L 2984.071533 2250.926758 C 2944.987549 2209.416992 2904.490479 2169.080078 2864.687012 2128.25 C 2864.633789 2163.062988 2866.179932 2198.081055 2865.273682 2232.85376 C 2865.087158 2240.244141 2865.140381 2247.60498 2859.728516 2252.806152 C 2852.076904 2253.411377 2846.984863 2255.117676 2840.133301 2251.233398 C 2828.109619 2231.598145 2835.174072 2096.004639 2835.174072 2064.828125 Z"/>
    <path id="path28" fill="#0c55f7" stroke="none" d="M 2416.860596 797.132324 L 2419.081299 797.455078 C 2429.014893 803.544189 2440.88916 830.273682 2447.034424 841.036377 C 2379.125732 859.04541 2332.814209 891.810547 2289.934082 947.10376 C 2265.684082 944.648438 2244.806396 940.470703 2222.393311 930.339844 C 2200.478516 919.268066 2182.624268 907.054932 2164.884766 890.09375 C 2253.148438 867.925781 2335.61084 838.290283 2416.860596 797.132324 Z"/>
    <path id="path29" fill="#0c55f7" stroke="none" d="M 1713.442993 538.875488 L 1714.919922 540.104492 C 1712.603027 550.592529 1705.810181 561.14209 1701.299194 570.953125 C 1693.357178 588.22876 1688.886353 607.293457 1686.881348 626.174072 C 1680.776245 683.658936 1700.086182 743.937256 1736.821167 788.361084 C 1802.362671 867.624512 1886.773926 883.980713 1984.163452 892.908936 C 1935.897095 900.598145 1887.470093 907.242432 1838.916382 912.837402 C 1789.352417 918.15625 1735.042969 922.251221 1685.569702 914.932861 C 1643.782471 908.753174 1603.13916 888.310059 1578.028076 853.537354 C 1558.011475 825.813232 1551.335815 792.320313 1556.763794 758.795166 C 1570.984375 670.941895 1643.385376 588.788574 1713.442993 538.875488 Z"/>
    <path id="path30" fill="#fefefd" stroke="none" d="M 2567.525146 1321.401855 C 2572.534424 1322.374878 2614.177734 1371.349487 2621.717041 1378.832886 C 2663.064453 1419.884399 2708.458496 1454.419922 2755.727051 1488.19043 C 2695.288574 1527.738037 2622.359619 1607.227783 2570.98291 1659.081909 C 2548.364258 1682.388184 2526.151367 1705.809082 2504.724365 1730.22998 C 2485.276855 1702.078125 2465.059814 1674.465576 2444.09668 1647.423462 C 2486.766113 1549.692627 2509.480469 1428.919556 2516.577637 1322.97998 C 2533.634521 1323.289307 2550.505127 1322.380127 2567.525146 1321.401855 Z"/>
    <path id="path31" fill="#0c55f7" stroke="none" d="M 2789.878662 1169.964111 C 2859.088623 1219.581299 2896.466064 1282.723145 2944.747803 1350.749268 C 2996.095215 1423.110107 3056.293701 1480.429443 3135.474365 1521.28894 C 3179.543701 1544.027344 3211.615723 1546.245605 3252.619385 1562.97998 C 3253.1521 1563.196045 3253.685791 1563.425293 3254.218506 1563.64917 C 3196.552734 1570.546265 3136.16748 1568.149536 3078.608398 1562.260132 C 3077.941895 1562.241699 3077.275391 1562.254883 3076.608887 1562.204224 C 2892.813477 1547.911865 2732.639404 1444.419556 2609.87207 1312.907715 C 2620.187012 1310.369751 2630.469482 1307.698364 2640.520508 1304.248535 C 2708.645264 1280.870361 2758.339844 1234.204468 2789.878662 1169.964111 Z"/>
    <path id="path32" fill="#0c55f7" stroke="none" d="M 1958.500488 410.818604 C 1988.088013 410.018799 2034.900391 437.761475 2060.81665 450.64624 C 2011.762085 463.984375 1961.425049 488.511719 1925.239258 524.80957 C 1897.048828 553.09082 1874.510254 590.732178 1874.880859 631.73291 C 1875.219604 669.363525 1894.84668 700.782715 1921.157471 726.293701 C 2016.110474 818.367188 2125.086426 834.267334 2250.86377 832.299805 C 2218.586182 841.196045 2186.111084 849.359863 2153.463379 856.784424 C 2062.256348 877.408691 1962.256958 888.334229 1871.263062 860.333008 C 1808.074463 841.52002 1755.071655 798.148926 1724.125732 739.933105 C 1699.198486 692.094238 1694.570313 638.707031 1711.150146 587.165039 C 1718.401611 564.623779 1729.153809 539.35791 1746.184204 522.623535 C 1767.085693 502.081787 1919.141968 431.061768 1958.500488 410.818604 Z"/>
    <path id="path33" fill="#0c55f7" stroke="none" d="M 2071.987305 458.732178 C 2089.873535 466.069336 2108.157227 481.084229 2123.729248 492.497559 C 2225.715088 567.257813 2317.556641 663.591553 2394.687256 763.623291 C 2379.981445 757.182129 2363.395996 753.46582 2348.14917 748.195068 C 2313.106689 736.0271 2280.197998 718.418457 2250.631592 696.015625 C 2221.214844 673.991699 2085.309326 533.783447 2068.660156 532.255615 L 2067.74292 536.699951 C 2085.525391 567.927002 2149.163086 623.356201 2177.566895 651.485352 C 2240.037109 711.265381 2298.947998 756.21167 2387.177002 766.228027 C 2375.046631 774.348633 2361.692627 781.522949 2348.394531 787.537354 C 2256.265137 829.191162 2151.813232 828.463379 2057.894775 792.594971 C 1999.197144 770.17627 1924.369995 728.469238 1897.992554 668.078613 C 1886.733887 642.29541 1887.744507 616.243164 1898.349731 590.428223 C 1928.585083 516.81958 2004.358521 487.624023 2071.987305 458.732178 Z"/>
    <path id="path34" fill="#0c55f7" stroke="none" d="M 2398.587646 1024.204956 C 2408.902344 1006.838623 2416.447266 988.07251 2427.281982 970.999268 C 2451.723877 932.499268 2494.881348 904.330322 2538.750732 892.879639 C 2585.45166 880.769775 2635.060547 887.948486 2676.413086 912.800049 C 2719.563721 939.064697 2750.51123 981.397949 2762.445557 1030.483521 C 2774.997803 1081.559814 2766.291504 1135.543701 2738.317871 1180.084106 C 2710.792969 1224.280151 2666.72583 1255.622681 2615.945313 1267.121704 C 2567.287842 1277.847046 2527.889404 1269.057129 2486.422119 1242.165161 C 2479.365234 1237.587524 2463.958496 1223.662842 2456.821533 1223.449707 C 2436.749023 1209.450439 2421.757813 1186.997314 2410.656494 1165.431885 C 2386.766357 1119.024536 2382.783447 1074.046143 2398.587646 1024.204956 Z"/>
    <path id="path35" fill="#000000" stroke="none" d="M 2569.137939 918.532227 C 2607.805908 914.613037 2648.081299 928.540283 2678.252686 952.470459 C 2710.644775 978.184326 2730.053223 1016.606934 2734.612305 1057.471436 C 2739.491211 1101.311523 2727.387207 1143.99707 2699.260742 1178.13269 C 2668.30835 1215.68103 2628.720703 1232.050293 2581.369629 1236.427734 C 2541.637939 1238.384766 2500.498779 1224.260254 2469.428955 1199.767456 C 2437.314209 1174.450928 2418.212158 1137.676025 2413.573242 1097.219116 C 2408.590576 1053.768311 2421.499268 1011.981201 2449.172607 978.192383 C 2480.428955 940.025635 2521.133545 923.083008 2569.137939 918.532227 Z"/>
    <path id="path36" fill="#0c55f7" stroke="none" d="M 2562.256836 1034.975586 C 2569.889648 1034.447754 2578.231689 1033.512085 2585.683105 1035.607544 C 2596.896484 1038.761353 2607.621826 1046.599487 2613.22583 1056.890381 C 2618.843262 1067.207886 2619.514893 1079.138306 2615.812012 1090.223511 C 2610.314453 1106.680786 2598.234863 1114.446899 2583.291992 1121.58374 C 2575.821777 1122.66626 2569.905762 1123.047485 2562.494141 1120.935913 C 2551.699463 1117.859375 2542.096436 1109.97876 2536.871094 1100.082397 C 2530.907471 1088.786499 2530.032959 1074.952515 2533.941406 1062.84082 C 2538.708008 1048.065796 2549.044189 1041.691406 2562.256836 1034.975586 Z"/>
    <path id="path37" fill="#0c55f7" stroke="none" d="M 2594.286377 238.755371 C 2665.900879 226.730713 2794.784424 243.434814 2865.939941 260.532471 C 3121.05127 321.851074 3254.565186 473.696777 3408.607422 669.97168 C 3462.647705 738.832031 3519.11377 809.193604 3590.456543 860.90625 C 3628.473877 888.464844 3672.169922 913.178955 3718.105225 924.554688 C 3735.940674 928.975098 3756.282715 929.630615 3773.238525 936.575684 C 3773.718262 936.781006 3774.225098 937.007568 3774.704834 937.223633 C 3771.265381 939.383057 3767.213379 940.638916 3763.294189 941.673096 C 3660.602295 968.456787 3551.585449 955.496582 3458.0354 905.383301 C 3436.25415 893.631592 3418.071777 876.641113 3396.663818 864.476074 L 3394.824463 863.433594 C 3394.690674 862.98584 3394.61084 862.521729 3394.450928 862.095215 C 3390.025146 851.647217 3332.279541 803.083008 3318.949463 783.727783 C 3300.207275 756.486328 3286.637207 723.04126 3269.228271 694.403076 C 3184.369141 554.781006 3087.48584 428.966309 2935.22998 358.932861 C 2720.162354 260.000732 2477.992188 285.950439 2261.71167 365.776367 C 2238.202637 349.764404 2212.675537 336.460938 2187.319092 323.666748 C 2321.302246 282.855225 2454.453857 250.677734 2594.286377 238.755371 Z"/>
    <path id="path38" fill="#0c55f7" stroke="none" d="M 2717.043213 890.512207 C 2737.438232 890.968018 2759.699463 895.87085 2779.614502 900.371094 C 2882.576172 923.653564 2982.685059 983.326904 3035.952148 1076.736084 C 3062.692139 1123.609985 3082.20752 1173.413818 3111.320557 1219.335938 C 3191.654785 1344.897583 3318.832764 1433.151489 3464.567627 1464.46814 C 3504.397461 1473.060791 3546.200684 1471.290527 3585.124512 1480.38147 L 3587.310547 1480.90686 C 3571.12793 1492.255859 3541.668457 1497.452026 3522.286865 1502.176147 C 3500.611816 1516.721924 3395.064453 1539.001831 3364.88501 1545.397827 C 3218.680664 1576.38208 3072.556396 1485.53772 2983.564697 1375.665649 C 2919.953613 1297.140869 2883.082764 1214.819824 2795.104248 1157.36438 C 2805.954834 1126.382568 2811.740234 1093.574707 2809.553955 1060.724121 C 2804.834961 989.864014 2769.057129 936.30127 2717.043213 890.512207 Z"/>
    <path id="path39" fill="#fefefd" stroke="none" d="M 2499.352295 2142.82251 C 2507.022461 2049.986572 2510.954834 1989.102783 2586.565674 1925.307617 C 2642.325439 1878.263184 2711.284668 1856.577637 2784.066895 1862.96814 C 2871.831787 1870.673096 2948.959961 1920.684692 3004.41333 1987.276489 C 3016.943359 2002.323486 3028.94043 2018.239502 3039.417969 2034.795532 C 3046.962646 2046.747314 3043.091797 2041.270264 3052 2053 C 3057.502686 2060.245605 3066.251709 2069.509521 3072 2075 C 3076.791504 2079.57666 3184.075684 2183.348633 3189.594482 2195.617676 C 3190.127686 2196.817383 3190.474121 2198.782227 3190.740723 2199.957764 C 3191.034424 2199.504639 3191.354004 2199.064941 3191.620605 2198.598145 C 3203.164307 2178.544434 3186.928467 2075.529541 3203.164307 2070.981445 C 3207.98999 2069.629639 3214.228271 2071.029297 3219.133789 2071.647949 C 3220.44043 2072.957031 3222.146484 2073.953857 3223.026611 2075.577637 C 3226.518799 2082.037354 3225.745605 2209.494141 3225.63916 2227.297852 C 3225.558838 2239.452148 3226.465332 2253.083496 3221.373535 2264.326172 C 3221.159912 2264.792725 3220.973633 2265.27002 3220.76001 2265.741699 C 3215.161377 2252.163818 3105.215088 2139.407227 3088.3125 2131.56665 C 3096.550537 2146.549561 3091.885498 2221.586182 3090.178711 2240.217285 C 3089.495361 2247.67627 3089.399658 2249.172119 3089 2257 C 3082.583984 2258.114502 3069.397949 2258.21875 3061 2258 C 3051.668945 2212.552246 3064.771484 2152.812012 3060.959229 2106.372803 C 3055.947266 2045.376953 2966.475342 1952.980835 2916.30127 1919.810181 C 2855.32959 1879.521484 2781.960693 1860.043579 2709.551758 1874.903931 C 2641.38623 1888.516968 2581.467285 1928.760376 2543.080322 1986.711182 C 2517.782471 2025.341797 2514.400635 2076.411377 2510 2124 C 2509.637207 2127.92334 2510.309326 2146.307617 2509 2143 L 2524 2143 C 2533.1604 2118.456787 2531.541992 2093.362793 2531.309814 2067.60083 C 2541.814209 2067.712891 2552.478271 2067.464844 2562.94751 2068.227295 C 2562.875488 2096.044678 2566.794678 2229.468018 2562.88623 2245.725342 C 2562.542236 2247.14624 2560.925293 2254.637695 2560 2256 C 2553.32959 2259.145996 2539.835693 2260.963379 2538.012207 2253.715332 C 2533.250977 2234.789307 2537.076904 2243.461182 2535 2242 C 2531.66748 2220.056152 2526.814941 2190.830566 2525.68457 2170.314453 C 2519.921143 2169.787354 2513.387451 2169.273438 2507 2169 C 2498.887451 2178.18457 2501.181641 2261.959229 2503 2281 C 2503.205078 2283.132813 2503.429688 2297.94458 2504 2300 L 2505 2315 C 2507.326172 2326.376709 2506.126465 2350.918213 2506 2354 L 2505 2389 L 2505 2426 C 2499.669922 2473.268799 2478.650879 2586.522217 2475.254395 2608.138184 C 2632.821289 2587.148682 2816.885498 2637.984131 2943.068115 2734.240723 C 2948.463867 2738.305908 2953.710449 2742.56543 2958.797363 2747.010986 C 2998.894287 2672.869141 3047.788818 2595.511963 3074.928955 2515.790039 C 3082.34082 2494.05127 3086.57959 2470.534424 3091.64502 2448.118652 L 3090.232178 2444.906006 L 3093.9646 2443.887695 C 3096.710449 2467.018066 3092.311523 2489.713867 3085.006836 2511.644531 C 3061.732666 2581.712646 3020.942383 2648.13916 2986.364258 2713.259277 C 2955.678223 2771.111816 2926.911865 2830.003906 2895.959473 2887.696533 C 2886.735107 2893.721924 2872.95166 2893.561768 2862.314453 2890.442627 C 2861.701172 2890.255859 2861.141357 2889.962646 2860.554688 2889.7229 C 2703.314697 2888.334473 2546.065186 2888.307861 2388.824707 2889.642822 L 2379.800293 2891.109131 C 2364.158691 2888.17627 2344.294189 2890.149414 2328.20752 2890.069336 C 2388.451416 2747.490967 2432.406006 2586.220947 2439.039063 2431.362793 C 2433.141846 2431.73877 2427.929932 2431.199951 2422.109863 2430.237793 C 2414.050537 2417.571289 2419.859863 2343.949219 2420.23584 2325.468506 L 2444.949707 2345.738281 C 2446.021484 2287.061768 2446.031982 2228.230957 2450.604248 2169.704102 C 2465.712646 2169.590332 2480.818848 2169.271973 2495.918457 2168.749512 C 2475.222412 2167.352539 2454.44873 2168.65625 2433.744385 2169.431885 L 2433.698975 2254.723145 L 2401.78418 2255.253906 C 2401.65625 2229.241211 2393.047363 2083.162109 2401 2070 L 2402.711914 2067.990234 C 2404.4104 2066.881104 2406.140381 2065.755859 2407.947998 2064.828125 C 2414.725098 2061.346436 2419.998535 2060.869385 2426.983398 2062.871338 C 2440.939941 2076.54541 2430.129395 2118.561768 2436.117188 2138.796875 C 2441.881104 2144.408691 2445.413574 2143.067871 2452.982422 2143.200928 L 2499.352295 2142.82251 Z"/>
    <path id="path40" fill="#000000" stroke="none" d="M 2450.604248 2169.704102 C 2465.712646 2169.590332 2480.818848 2169.271973 2495.918457 2168.749512 C 2494.129639 2243.648438 2491.063721 2318.625 2491.522461 2393.558594 C 2475.862061 2377.975586 2459.116699 2362.678223 2444.949707 2345.738281 C 2446.021484 2287.061768 2446.031982 2228.230957 2450.604248 2169.704102 Z"/>
    <path id="path41" fill="#000000" stroke="none" d="M 2439.039063 2431.362793 L 2439.574951 2366.805176 L 2488.202881 2415.371826 C 2483.281738 2580.342285 2439.412354 2738.212891 2379.800049 2891.109131 C 2364.158691 2888.17627 2344.294189 2890.149414 2328.20752 2890.069336 C 2388.451416 2747.490967 2432.406006 2586.220947 2439.039063 2431.362793 Z"/>
    <path id="path42" fill="#000000" stroke="none" d="M 2427.543213 2785.774902 C 2563.493896 2765.859863 2747.382324 2812.861328 2860.554688 2889.7229 C 2703.314697 2888.334473 2546.065186 2888.307861 2388.824707 2889.642822 C 2403.007813 2855.384521 2415.455566 2820.779785 2427.543213 2785.774902 Z"/>
    <path id="path43" fill="#0c55f7" stroke="none" d="M 2560.409424 595.962891 C 2593.351074 593.676025 2626.39209 593.176025 2659.387939 594.4646 C 2850.183838 601.894775 3002.546875 680.587402 3118.598633 832.097168 C 3167.359863 895.729492 3208.469727 966.467041 3250.833008 1034.49585 C 3304.814453 1122.380249 3363.240967 1207.456543 3425.883545 1289.393555 C 3464.807373 1339.685303 3511.809082 1392.682983 3563.18335 1430.630981 C 3581.365234 1444.075684 3609.785156 1451.708496 3624.52832 1467.667358 L 3556.891602 1462.033936 C 3533.537109 1460.455811 3509.169922 1456.894043 3486.161865 1452.526978 C 3330.840088 1423.054321 3194.02002 1330.916748 3113.959717 1193.979492 C 3085.513184 1145.321899 3065.998047 1091.391113 3034.138916 1044.850464 C 2975.913086 959.775391 2877.537109 905.244629 2777.961426 884.98291 C 2763.005371 881.943848 2747.648926 878.752441 2732.479492 877.446045 C 2721.068848 876.465088 2708.618652 877.398193 2697.527832 874.761475 C 2679.852051 870.559814 2661.976563 860.916748 2644.810059 854.665039 C 2630.234863 849.354248 2614.782959 846.744385 2599.575684 843.886475 C 2571.086914 759.770752 2529.21167 681.797852 2482.297852 606.714844 C 2507.742188 600.54834 2534.426514 598.5354 2560.409424 595.962891 Z"/>
    <path id="path44" fill="#0c55f7" stroke="none" d="M 2568.946045 310.726074 C 2664.80542 302.770508 2768.097412 316.425781 2859.541748 345.751953 C 3134.43457 433.922363 3263.523193 699.830811 3383.173828 940.345459 C 3394.184326 962.476074 3401.276123 986.336914 3412.73999 1008.246338 L 3414.046143 1010.704346 L 3409.914307 1007.774414 C 3527.56543 1027.966797 3652.494873 1064.419189 3752.523682 1130.40564 C 3773.025146 1143.933105 3839.275635 1186.272095 3844.074463 1209.626465 C 3811.922363 1162.589966 3588.750488 1120.808228 3524.766113 1107.00354 C 3498.158936 1101.26355 3472.031982 1093.699951 3445.318848 1088.442627 C 3447.611572 1075.62439 3434.574951 1052.104858 3427.909912 1040.848999 C 3427.936279 1055.973267 3439.106689 1078.130493 3444.252441 1093.049561 C 3452.570557 1117.230347 3494.293701 1238.643311 3493.173828 1253.679565 C 3508.343262 1271.014038 3530.737793 1339.813354 3548.013428 1367.51062 C 3562.409912 1390.600708 3596.695068 1419.500488 3604.026611 1442.518799 C 3585.791016 1420.798828 3554.678467 1403.826782 3532.924072 1384.447632 C 3496.852783 1352.271484 3464.407227 1311.916138 3434.654785 1273.810791 C 3378.641602 1202.113647 3327.267822 1125.748169 3278.506104 1048.956299 C 3194.446777 916.575195 3120.171387 775.814941 2988.763672 683.178955 C 2839.41333 577.874023 2650.518066 563.197754 2475.144775 593.811523 C 2420.531738 512.058105 2352.665527 435.519531 2274.740479 375.163574 C 2372.484619 343.107178 2466.237793 319.091797 2568.946045 310.726074 Z"/>
    <path id="path45" fill="#fefefd" stroke="none" d="M 2108.205078 904.778076 C 2126.539307 901.083008 2141.677002 926.66626 2154.695313 937.570068 C 2185.548828 963.411865 2223.579834 975.059814 2262.599609 980.970215 C 2257.384766 996.358398 2252.119385 1011.762695 2248.842773 1027.702881 C 2236.299316 1088.730713 2251.215576 1151.374023 2285.796387 1202.753418 C 2332.561279 1272.232422 2399.686035 1306.81604 2479.906494 1322.228271 C 2413.431885 1452.195557 2302.119873 1553.677368 2166.577637 1607.886353 C 2129.90918 1622.746826 2056.777832 1654.288574 2018.328369 1637.300659 C 1993.963867 1626.537964 1987.186768 1597.515625 1978.218262 1574.739868 C 1963.459229 1540.644165 1945.391602 1527.921997 1914.905884 1508.644043 C 1910.008179 1496.356445 1906.513184 1483.298218 1902.562134 1470.669312 C 1933.559937 1460.546509 1957.692627 1451.591309 1981.556274 1428.429077 C 1952.765869 1442.956055 1924.810059 1455.033203 1893.646973 1463.559082 C 1872.409424 1455.74231 1851.958374 1446.280518 1831.384888 1436.88562 L 1832.968384 1432.939819 C 1859.25 1366.625488 1788.331421 1372.125366 1755.55542 1335.630249 C 1748.325073 1327.581665 1744.150146 1316.363037 1739.881714 1306.536133 C 1769.498535 1282.283447 1812.802612 1255.532593 1828.166992 1219.234741 C 1831.699463 1210.887451 1835.535889 1198.557129 1833.456299 1189.52478 C 1827.945557 1165.605103 1780.048096 1084.307739 1766.048828 1056.245239 C 1749.492798 1023.055908 1735.824097 988.677734 1722.032837 954.280762 C 1851.206543 956.032227 1982.982422 935.216064 2108.205078 904.778076 Z"/>
    <path id="path46" fill="#000000" stroke="none" d="M 2105.046143 1192.809082 C 2112.510986 1193.952759 2115.966064 1193.864868 2121.87915 1198.876953 C 2123.574707 1206.440552 2121.042236 1211.071289 2117.957275 1217.733765 C 2111.57251 1216.829956 2108.101318 1216.094238 2103.033203 1212.00708 C 2100.388428 1205.123413 2102.990479 1199.519531 2105.046143 1192.809082 Z"/>
    <path id="path47" fill="#000000" stroke="none" d="M 1959.702759 945.1604 C 1995.587402 939.889404 2033.183594 944.730957 2067.807129 954.504639 C 1997.035034 952.902344 1933.23999 963.251709 1866.453613 986.619385 C 1846.314575 994.660156 1828.50293 1011.074951 1807.833252 1016.56958 C 1805.428345 1017.209229 1800.963013 1013.799561 1798.723389 1012.570557 C 1799.51001 1008.408936 1801.122803 1005.726807 1803.746216 1002.42627 C 1834.823975 963.315918 1912.780884 950.623047 1959.702759 945.1604 Z"/>
    <path id="path48" fill="#000000" stroke="none" d="M 1992.529297 995.846436 C 2010.682251 992.281982 2045.718872 990.938477 2062.533691 997.926025 C 2070.96875 1001.43457 2077.223389 1007.219727 2080.228027 1016.022949 C 2089.015381 1041.77124 2068.281494 1077.757324 2057.857422 1100.716919 C 2056.329834 1076.144287 2053.866455 1052.907349 2046.230835 1029.371704 C 2018.802979 1026.159058 1991.756226 1028.22522 1964.376343 1030.755371 C 1987.248047 1078.428955 2000.22876 1122.887451 1999.495728 1175.869263 C 2010.780884 1166.556885 2021.218506 1155.985962 2032.362427 1146.439087 C 2031.013306 1151.997803 2027.214233 1156.047485 2023.75647 1160.459595 C 1995.723267 1191.651978 1969.673584 1201.879028 1929.555542 1209.580933 C 1940.243408 1203.819702 1951.651245 1199.180908 1962.742065 1194.230103 C 1920.045776 1161.715332 1905.769165 1112.410034 1892.484497 1063.00354 C 1884.691772 1070.577759 1877.277588 1078.618286 1869.732788 1086.443115 C 1860.433716 1074.96582 1851.766235 1062.859497 1842.848633 1051.075684 C 1887.675049 1011.800049 1935.119385 1001.80249 1992.529297 995.846436 Z"/>
    <path id="path49" fill="#0c55f7" stroke="none" d="M 1953.816162 1035.021118 L 1958.577759 1035.095581 C 1962.571289 1039.140015 1964.125732 1043.373657 1966.245117 1048.585693 C 1978.324707 1078.298462 2002.953613 1143.394653 1987.503906 1173.507202 C 1984.197998 1179.953613 1981.00415 1180.700195 1974.651123 1182.939575 C 1965.250732 1182.281128 1959.921387 1178.452759 1952.333862 1173.325928 C 1922.178589 1144.372925 1910.280273 1097.400391 1898.898926 1058.68457 C 1916.070923 1047.855347 1934.674316 1041.318237 1953.816162 1035.021118 Z"/>
</svg>
